<svg xmlns="http://www.w3.org/2000/svg" xmlns:xlink="http://www.w3.org/1999/xlink" version="1.1" x="0px" y="0px" viewBox="7.5 7.5 50 62.5" enable-background="new 7.5 7.5 50 50" xml:space="preserve"><path d="M55.008,18.742l-8.749-8.75c-0.913-0.913-2.213-1.376-3.863-1.376c-5.4,0-13.774,4.885-21.334,12.445  C10.894,31.228,6.032,42.296,9.992,46.259l8.75,8.749c0.917,0.918,2.23,1.375,3.865,1.375c1.84,0,4.09-0.579,6.647-1.734  c4.679-2.115,9.894-5.919,14.685-10.71c4.791-4.79,8.595-10.005,10.71-14.685C56.831,24.425,56.958,20.692,55.008,18.742z   M21.768,21.768C29.037,14.5,37.326,9.616,42.396,9.616c1.375,0,2.438,0.365,3.156,1.083c1.889,1.889,1.204,6.023-1.345,10.925  c-3.747-0.88-9.894,2.078-15.2,7.384c-5.344,5.345-8.283,11.474-7.381,15.221c-2.948,1.535-5.646,2.404-7.773,2.404  c-1.375,0-2.436-0.364-3.154-1.082C7.254,42.104,12.323,31.213,21.768,21.768z M22.538,43.737  c-0.616-3.398,2.268-9.112,7.177-14.022c4.87-4.87,10.601-7.775,14.001-7.183c-2.116,3.805-5.285,8.001-9.233,11.95  C30.575,38.39,26.376,41.597,22.538,43.737z M53.736,28.842c-2.066,4.572-5.797,9.682-10.505,14.389  c-4.708,4.708-9.818,8.438-14.39,10.505c-4.359,1.971-7.782,2.175-9.393,0.564l-6.753-6.753c0.364,0.057,0.75,0.086,1.158,0.086  c5.4,0,13.775-4.885,21.336-12.444c8.397-8.4,13.16-17.402,12.337-22.516l6.774,6.775C55.912,21.06,55.707,24.484,53.736,28.842z"/></svg>