<svg xmlns="http://www.w3.org/2000/svg" data-name="Layer 1" viewBox="0 0 100 125" x="0px" y="0px"><title>ALL</title><path d="M60.11,42.86a1,1,0,0,1-1-1V11.23a4.28,4.28,0,1,0-8.55,0L50.42,18a1,1,0,1,1-2,0l.16-6.79a6.23,6.23,0,0,1,12.47,0V41.88A1,1,0,0,1,60.11,42.86Z"/><path d="M70.79,42.86a1,1,0,0,1-1-1V16.08a4.28,4.28,0,0,0-4.28-4.28c-2.15,0-4.44,1.36-4.44,3.87a1,1,0,0,1-2,0c0-3.32,2.75-5.83,6.4-5.83a6.24,6.24,0,0,1,6.23,6.23V41.88A1,1,0,0,1,70.79,42.86Z"/><path d="M56,95a1,1,0,0,1-.8-.42l-1.3-1.88C49.82,87.5,42.4,84.84,35,86a1,1,0,0,1-1-1.39c3.52-7.24.6-14-3.59-22.17-2.51-4.87-11-19.1-11.1-19.24a4.24,4.24,0,0,1,0-4.14,8.92,8.92,0,0,1,3.34-3.62,9.05,9.05,0,0,1,4.7-1.46,4.24,4.24,0,0,1,3.75,1.81L38,46.68V18a6.23,6.23,0,0,1,12.47,0V41.88a1,1,0,0,1-2,0V18a4.28,4.28,0,0,0-8.55,0v32a1,1,0,0,1-1.81.52l-8.7-13.8a2.48,2.48,0,0,0-2.1-.9h0a7.58,7.58,0,0,0-6.23,4,2.48,2.48,0,0,0-.1,2.29c.36.61,8.63,14.45,11.17,19.37,4,7.78,7.08,14.88,4.29,22.33,7.52-.6,14.86,2.33,19,7.71l.51.73a21.49,21.49,0,0,1,19.73-8.87A24.67,24.67,0,0,1,77,63.54a20.11,20.11,0,0,0,1.52-3.81c1.69-8.87,0-36.51,0-36.79,0-2.42-1.52-4.34-3.39-4.34s-3.39,1.92-3.39,4.28a1,1,0,1,1-2,0c0-3.44,2.4-6.23,5.34-6.23s5.34,2.8,5.34,6.23c.07,1.09,1.72,28.1,0,37.21a21.47,21.47,0,0,1-1.69,4.33c-3.28,6.47-3.51,13.87-.62,19.78a1,1,0,0,1-.1,1,1,1,0,0,1-1,.36,19.51,19.51,0,0,0-20.3,8.94A1,1,0,0,1,56,95Z"/><path d="M49.44,27.33a1,1,0,0,1-1-1,4.28,4.28,0,0,0-8.55,0,1,1,0,0,1-2,0,6.23,6.23,0,0,1,12.47,0A1,1,0,0,1,49.44,27.33Z"/><path d="M49.42,20.9a1,1,0,0,1-1-1,6.68,6.68,0,0,1,6.42-6.6,6.24,6.24,0,0,1,6.23,6.23,1,1,0,0,1-2,0,4.28,4.28,0,0,0-4.28-4.28,4.73,4.73,0,0,0-4.46,4.64A1,1,0,0,1,49.42,20.9Z"/><path d="M70.79,25.39a1,1,0,0,1-1-1,4.28,4.28,0,0,0-4.28-4.28,4.42,4.42,0,0,0-4.44,4.28,1,1,0,0,1-2,0,6.4,6.4,0,0,1,6.4-6.23,6.24,6.24,0,0,1,6.23,6.23A1,1,0,0,1,70.79,25.39Z"/><path d="M70.79,32.18a1,1,0,0,1-1-1c0-3.44,2.4-6.23,5.34-6.23a6.13,6.13,0,0,1,5.76,6.17,1,1,0,0,1-2,0,4.18,4.18,0,0,0-3.8-4.22c-1.87,0-3.39,1.92-3.39,4.28A1,1,0,0,1,70.79,32.18Z"/><path d="M49.44,40.91a1,1,0,0,1-1-1,4.28,4.28,0,1,0-8.55,0,1,1,0,0,1-2,0,6.23,6.23,0,0,1,12.47,0A1,1,0,0,1,49.44,40.91Z"/><path d="M49.44,34.12h-.15A1,1,0,0,1,48.47,33c.45-3,2.84-6.09,6.38-6.09a6.24,6.24,0,0,1,6.23,6.23,1,1,0,0,1-2,0,4.28,4.28,0,0,0-4.28-4.28c-2.37,0-4.12,2.25-4.45,4.42A1,1,0,0,1,49.44,34.12Z"/><path d="M70.79,39a1,1,0,0,1-1-1,4.28,4.28,0,0,0-4.28-4.28A4.42,4.42,0,0,0,61.09,38a1,1,0,0,1-2,0,6.4,6.4,0,0,1,6.4-6.23A6.24,6.24,0,0,1,71.76,38,1,1,0,0,1,70.79,39Z"/><path d="M80.25,42.86a1,1,0,0,1-1-1,4.49,4.49,0,0,0-4.12-4.28c-1.87,0-3.39,1.92-3.39,4.28a1,1,0,1,1-2,0c0-3.44,2.4-6.23,5.34-6.23a6.4,6.4,0,0,1,6.08,6.23A1,1,0,0,1,80.25,42.86Z"/><path d="M24.28,50.67a1,1,0,0,1-.84-.48c-1.56-2.66-.7-6.62,1.92-8.84a7.84,7.84,0,0,1,6-1.57,4.94,4.94,0,0,1,3.54,2.11,1,1,0,1,1-1.66,1,3,3,0,0,0-2.18-1.22,6,6,0,0,0-4.46,1.13c-1.89,1.6-2.58,4.52-1.5,6.36a1,1,0,0,1-.84,1.47Z"/><path d="M27.9,56.91a1,1,0,0,1-.84-.48c-1.71-2.92-.22-7.22,2.18-9.26A7.35,7.35,0,0,1,35,45.72,5.26,5.26,0,0,1,38.76,48a1,1,0,1,1-1.66,1,3.36,3.36,0,0,0-2.42-1.35,5.44,5.44,0,0,0-4.18,1c-2,1.67-2.83,5-1.76,6.77a1,1,0,0,1-.84,1.47Z"/><path d="M44.27,48.81a1,1,0,0,1-1-1v-3.1a1,1,0,0,1,2,0v3.1A1,1,0,0,1,44.27,48.81Z"/><path d="M45.82,47.26h-3.1a1,1,0,0,1,0-2h3.1a1,1,0,0,1,0,2Z"/><path d="M54.94,48.81a1,1,0,0,1-1-1v-3.1a1,1,0,0,1,2,0v3.1A1,1,0,0,1,54.94,48.81Z"/><path d="M56.49,47.26h-3.1a1,1,0,0,1,0-2h3.1a1,1,0,0,1,0,2Z"/><path d="M65.61,48.81a1,1,0,0,1-1-1v-3.1a1,1,0,1,1,2,0v3.1A1,1,0,0,1,65.61,48.81Z"/><path d="M67.16,47.26h-3.1a1,1,0,0,1,0-2h3.1a1,1,0,0,1,0,2Z"/><path d="M75.31,48.81a1,1,0,0,1-1-1v-3.1a1,1,0,0,1,2,0v3.1A1,1,0,0,1,75.31,48.81Z"/><path d="M76.86,47.26h-3.1a1,1,0,0,1,0-2h3.1a1,1,0,0,1,0,2Z"/></svg>