<svg xmlns:dc="http://purl.org/dc/elements/1.1/" xmlns:cc="http://creativecommons.org/ns#" xmlns:rdf="http://www.w3.org/1999/02/22-rdf-syntax-ns#" xmlns:svg="http://www.w3.org/2000/svg" xmlns="http://www.w3.org/2000/svg" xmlns:sodipodi="http://sodipodi.sourceforge.net/DTD/sodipodi-0.dtd" xmlns:inkscape="http://www.inkscape.org/namespaces/inkscape" version="1.1" x="0px" y="0px" viewBox="0 0 100 125"><g transform="translate(0,-952.36218)"><path style="text-indent:0;text-transform:none;direction:ltr;block-progression:tb;baseline-shift:baseline;color:#000000;enable-background:accumulate;" d="m 48.181835,960.80378 c -0.19563,0.2976 -0.25243,0.692 -0.0881,1.011 l 0.375,0.7499 c -19.54928,0.9195 -29.46871,16.3803 -29.46871,25.8079 0,2.1664 0.50108,7.5486 0.875,14.02882 0.36912,6.3969 0.59206,13.7553 0.125,19.6214 -1.89378,2.0109 -3,4.1437 -3,6.3427 0.009,0.4211 0.31449,0.819 0.71875,0.9374 l 50,14.9973 c 0.0901,0.034 0.18514,0.055 0.28125,0.062 l 6,0 c 0.26844,0 0.5342,-0.1176 0.71875,-0.3125 2.11811,-2.7597 3.39605,-6.4863 5.125,-9.1546 0.10037,-0.1578 0.1552,-0.3441 0.15625,-0.5311 l 0,-24.8395 2.90625,-6.78 c 0.0552,-0.1173 0.0872,-0.2453 0.0937,-0.3748 0,-11.59952 -1.75412,-21.57862 -6.9375,-28.96372 -5.18338,-7.385 -13.80352,-12.014 -27,-13.029 -0.39521,-0.078 -0.62203,0.1648 -0.88064,0.4268 z m 3.25569,1.9172 c 2.80196,0.3369 5.36208,0.8577 7.6875,1.5309 5.86244,8.4648 6.85616,19.5265 6.875,30.7757 -7.56258,0.012 -15.8203,-0.4732 -25.875,-1.6559 -0.71869,-0.027 -1.06829,0.4282 -1.125,0.9998 l 0,10.99812 c -9.4e-4,0.5034 0.4351,0.9683 0.9375,0.9998 9.20625,0.6062 17.28415,1.2801 26.0625,1.8122 -0.0831,11.1699 -1.75803,22.6302 3.4375,34.1814 l -1.25,0 -35.15625,-10.5293 c 0.025,-10.6279 0.75216,-17.2835 -0.40625,-23.2772 -1.15862,-5.9949 -4.27184,-11.16942 -11.5625,-18.52802 -0.10293,-1.1109 -0.0464,-2.3498 0.0312,-3.3431 4.80859,-4.7454 9.72978,-8.4237 14.28125,-10.3732 4.50333,-0.9493 9.70932,-1.3303 12.99995,-3.7491 3.31743,-2.8858 3.635,-6.7741 3.0626,-9.8421 z m -1.78125,1.6871 c 0.3157,2.5819 -0.68616,5.1397 -2.5,6.5614 -2.46649,1.891 -6.81935,2.9119 -12.25,3.4056 -0.1157,-0.039 -0.20812,0.041 -0.3125,0.062 -4.16174,1.7747 -8.42462,4.8153 -12.625,8.6547 3.09523,-7.7865 13.01975,-18.8277 27.6875,-18.6837 z m 12.4375,0.8124 c 0.15128,0.058 0.28844,0.1276 0.4375,0.1873 6.43363,8.5376 7.44616,17.9991 7.46875,29.5574 -0.66413,0.016 -1.32655,0.022 -2,0.031 -0.1153,-12.4091 -1.28935,-21.5494 -5.90625,-29.7757 z m 3.9375,1.8433 c 3.51131,1.9583 6.28161,4.4717 8.40625,7.4988 3.64366,5.1912 5.54727,11.9356 6.25,19.8401 -2.8721,0.2365 -5.74707,0.3935 -8.6875,0.5 -0.0244,-10.4439 -0.90737,-19.5709 -5.96875,-27.8389 z m -44.78125,26.0268 c 5.96071,6.2985 8.41676,10.72112 9.40625,15.84092 1.05459,5.4566 0.42138,11.953 0.375,22.3086 l -11.84375,-3.5619 c 0.19401,-1.4633 0.89971,-2.993 2.53125,-4.6243 0.16275,-0.1669 0.26421,-0.3923 0.28125,-0.6248 0.50802,-6.0952 0.25108,-13.604 -0.125,-20.1214 -0.20279,-3.51442 -0.44826,-6.68722 -0.625,-9.21712 z m 19.75,2.3433 c 16.29701,1.8525 28.13247,1.8945 39.8125,0.9373 0.11886,1.8848 0.18456,3.83882 0.1875,5.84282 l -1.40625,3.3118 c -3.39476,0.3535 -5.69599,0.8436 -9.59375,0.8436 -9.97563,-0.1178 -19.16075,-1.2687 -29,-1.9372 z m 37.71875,12.12292 -0.625,1.406 c -0.0592,0.1268 -0.0914,0.2662 -0.0937,0.406 l 0,24.7145 c -1.30946,2.0628 -2.27338,4.1351 -3.3125,6.0613 -4.19583,-10.4807 -2.76877,-21.737 -2.6875,-31.8693 2.34806,-0.1842 4.70753,-0.4817 6.7187,-0.7185 z m -10.71875,0.7498 c 0.85987,0.043 1.56058,0.062 2,0.062 -0.10029,11.1107 -1.729,22.5072 3.4375,33.9939 l -1.78125,0 c -5.20267,-11.9589 -3.77705,-23.8908 -3.65625,-34.0559 z" fill="#000000" fill-opacity="1" stroke="none" marker="none" visibility="visible" display="inline" overflow="visible"/></g></svg>