<svg xmlns:x="http://ns.adobe.com/Extensibility/1.0/" xmlns:i="http://ns.adobe.com/AdobeIllustrator/10.0/" xmlns:graph="http://ns.adobe.com/Graphs/1.0/" xmlns="http://www.w3.org/2000/svg" xmlns:xlink="http://www.w3.org/1999/xlink" version="1.1" x="0px" y="0px" viewBox="0 0 32 40" style="enable-background:new 0 0 32 32;" xml:space="preserve"><metadata><sfw xmlns="http://ns.adobe.com/SaveForWeb/1.0/"><slices/><sliceSourceBounds height="16392" width="16538" bottomLeftOrigin="true" y="-8501" x="-7891"/></sfw></metadata><g><g><path d="M16,32c-2.757,0-5-2.243-5-5s2.243-5,5-5s5,2.243,5,5S18.757,32,16,32z M16,24c-1.654,0-3,1.346-3,3s1.346,3,3,3    s3-1.346,3-3S17.654,24,16,24z"/></g><g><path d="M6,26c-1.068,0-2.073-0.416-2.828-1.172C2.416,24.072,2,23.068,2,22c0-1.069,0.417-2.073,1.172-2.828    c1.511-1.512,4.146-1.512,5.656,0C9.584,19.928,10,20.932,10,22c0,1.069-0.417,2.073-1.172,2.828C8.073,25.584,7.068,26,6,26z     M6,20c-0.534,0-1.036,0.208-1.414,0.586S4,21.466,4,22s0.208,1.036,0.586,1.414c0.756,0.756,2.072,0.755,2.828,0    C7.792,23.036,8,22.534,8,22s-0.208-1.036-0.586-1.414S6.534,20,6,20z"/></g><g><path d="M26,26c-1.068,0-2.073-0.416-2.828-1.172C22.416,24.072,22,23.068,22,22c0-1.069,0.417-2.073,1.172-2.828    c1.511-1.512,4.146-1.512,5.656,0C29.584,19.928,30,20.932,30,22c0,1.069-0.417,2.073-1.172,2.828C28.073,25.584,27.068,26,26,26z     M26,20c-0.534,0-1.036,0.208-1.414,0.586S24,21.466,24,22s0.208,1.036,0.586,1.414c0.756,0.756,2.072,0.755,2.828,0    C27.792,23.036,28,22.534,28,22s-0.208-1.036-0.586-1.414S26.534,20,26,20z"/></g><g><path d="M29,17c-0.802,0-1.555-0.312-2.122-0.879C26.312,15.555,26,14.801,26,14c0-0.801,0.312-1.555,0.878-2.121    c1.134-1.133,3.109-1.133,4.243,0C31.689,12.446,32,13.2,32,14.001c0,0.8-0.312,1.554-0.878,2.12C30.555,16.688,29.802,17,29,17z     M29,13c-0.267,0-0.519,0.104-0.708,0.293C28.104,13.481,28,13.732,28,14s0.104,0.519,0.292,0.707    c0.378,0.377,1.037,0.377,1.415,0C29.896,14.519,30,14.268,30,14s-0.104-0.518-0.292-0.707C29.519,13.104,29.268,13,29,13z"/></g><g><path d="M3,17c-0.802,0-1.555-0.312-2.122-0.879C0.312,15.555,0,14.801,0,14c0-0.801,0.312-1.555,0.878-2.121    c1.134-1.133,3.109-1.133,4.243,0C5.689,12.446,6,13.2,6,14.001c0,0.8-0.312,1.554-0.878,2.12C4.555,16.688,3.802,17,3,17z M3,13    c-0.267,0-0.519,0.104-0.708,0.293C2.104,13.481,2,13.732,2,14s0.104,0.519,0.292,0.707c0.378,0.377,1.037,0.377,1.415,0    C3.896,14.519,4,14.268,4,14s-0.104-0.518-0.292-0.707C3.519,13.104,3.268,13,3,13z"/></g><g><path d="M11.756,27.345c-1.589-0.505-3.065-1.285-4.385-2.319l1.233-1.574c1.132,0.887,2.396,1.556,3.757,1.987L11.756,27.345z"/></g><g><path d="M3.345,19.993c-0.58-1.222-0.978-2.52-1.183-3.857l1.977-0.303c0.176,1.146,0.517,2.257,1.013,3.303L3.345,19.993z"/></g><g><path d="M20.253,27.343l-0.607-1.906c1.357-0.433,2.617-1.1,3.744-1.981l1.233,1.574C23.308,26.06,21.838,26.837,20.253,27.343z"/></g><g><path d="M28.656,19.994l-1.808-0.857c0.496-1.044,0.835-2.153,1.012-3.296l1.977,0.305C29.631,17.479,29.234,18.774,28.656,19.994    z"/></g><g><path d="M4.14,12.16l-1.977-0.305C3.203,5.097,9.151,0,16,0c6.847,0,12.795,5.096,13.836,11.854l-1.977,0.305    C26.967,6.367,21.869,2,16,2C10.129,2,5.031,6.368,4.14,12.16z"/></g></g></svg>