<svg xmlns="http://www.w3.org/2000/svg" xmlns:xlink="http://www.w3.org/1999/xlink" version="1.1" x="0px" y="0px" viewBox="0 0 100 125" enable-background="new 0 0 100 100" xml:space="preserve"><path fill="#000000" d="M50.358,18.601c-24.583,0-44.509,14.176-44.509,31.662c0,17.485,19.927,31.661,44.509,31.661  c24.583,0,44.511-14.176,44.511-31.661C94.869,32.777,74.941,18.601,50.358,18.601z M50.434,68.595  c-18.773,0-34.456-8.011-38.296-18.704c-0.588-1.64-0.908-3.341-0.908-5.088c0-13.139,17.552-23.792,39.205-23.792  c21.652,0,39.205,10.652,39.205,23.792c0,1.747-0.318,3.448-0.908,5.088C84.89,60.584,69.207,68.595,50.434,68.595z"/><path fill="#000000" d="M50.434,31.334c18.119,0,33.254,7.731,36.96,18.052c0.57-1.582,0.877-3.225,0.877-4.91  c0-12.68-16.939-22.962-37.837-22.962c-20.897,0-37.838,10.282-37.838,22.962c0,1.685,0.308,3.328,0.876,4.91  C17.179,39.065,32.315,31.334,50.434,31.334z"/></svg>