<?xml version="1.0" encoding="UTF-8"?><!DOCTYPE svg PUBLIC "-//W3C//DTD SVG 1.1//EN" "http://www.w3.org/Graphics/SVG/1.1/DTD/svg11.dtd"><svg xmlns="http://www.w3.org/2000/svg" xmlns:xlink="http://www.w3.org/1999/xlink"><symbol id="armor" viewBox="0 0 512 512"><path d="M339.8 33.47l14 2.81c-1.2 3.02-2.5 6.32-4 9.75-5.8 13.63-14.2 29.31-20 35.12-4.9 4.85-19.8 9.57-33.1 11.48-11.2 1.8-22.4 3.9-33.7 3.9v15.97h-14V96.53c-12 .1-24.2-2.6-33.7-3.9-13.3-1.9-28.2-6.62-33.1-11.45-5.8-5.81-14.2-21.49-20-35.11-1.5-3.44-2.8-6.75-4-9.79l14-2.81c8.4 11.37 38 47.06 83.8 47.06s75.4-35.69 83.8-47.06zm31.9 6.38l31.9 6.38-29.7 74.37 32.7 49-9.5 66.1c-1.8 1.4-3.8 2.8-6 4.3-11.3 7.5-26.1 14.5-39.1 14.5-4.3 0-12-3.5-20.2-10.4-8.3-6.9-17-16.5-24.8-26.2-14.2-17.9-24.3-34.2-26-37v-18.4h11v-18h-11v-14h11v-18s38.9-7.7 50.4-18.57c10.2-10.11 17.8-26.43 24-40.82 2-4.79 3.8-9.3 5.3-13.26zm-231.4 0c1.5 3.96 3.3 8.48 5.3 13.29 6.2 14.39 13.8 30.71 24 40.79C185 107.1 220 112.5 220 112.5v18h11v14h-11v18h11v18.4c-1.7 2.8-11.8 19.1-26 37-7.8 9.7-16.5 19.3-24.8 26.2-8.2 6.9-15.9 10.4-20.2 10.4-13 0-27.8-7-39.1-14.5-2.2-1.5-4.2-2.9-6-4.3l-9.5-66.1 32.7-49-29.7-74.38zM263 130.5v14h-14v-14zm0 32V186l1.3 2.1s12.2 20.4 28.7 41c8.2 10.3 17.5 20.7 27.2 28.8 9.8 8.1 20.1 14.6 31.8 14.6 15.6 0 30-6.1 41.7-13l-2.1 15-54.2 40.7-81.4-97.8-81.4 97.8-54.2-40.7-2.1-15c11.7 6.9 26.1 13 41.7 13 11.7 0 22-6.5 31.8-14.6 9.7-8.1 19-18.5 27.2-28.8 16.5-20.6 28.7-41 28.7-41l1.3-2.1v-23.5zm-7 83.1l78.6 94.2 33.1-24.8-7.4 37c-13.1 3.1-64.2 14.5-104.3 14.5-40.1 0-91.2-11.4-104.3-14.5l-7.4-37 33.1 24.8zm90.3 128l8.7 34.9c-5.9 2-12.5 4.2-19.6 6.4-4.2 1.3-8.6 2.6-13 3.8l-6.6-39.6c11.3-1.8 21.8-3.8 30.5-5.5zm-180.6 0c8.7 1.7 19.2 3.7 30.5 5.5l-6.6 39.6c-4.4-1.2-8.8-2.5-13-3.8-7.1-2.2-13.7-4.4-19.6-6.4zm132.2 8l6.9 41.7c-13.9 3.3-27.8 5.9-39.8 6.8v-45.8c10.8-.3 22-1.4 32.9-2.7zm-83.8 0c10.9 1.3 22.1 2.4 32.9 2.7v45.8c-12-.9-25.9-3.5-39.8-6.8zm163.6 37.9l11.2 44.7s-56.2 20.2-85.6 24.3c-31.2 4.3-63.4 4.3-94.6 0-29.4-4.1-85.6-24.3-85.6-24.3l11.2-44.7c8.1 3.1 20.1 7.4 37.1 12.6 26.3 8.1 58.6 16.4 84.6 16.4 26 0 58.3-8.3 84.6-16.4 17-5.2 29-9.5 37.1-12.6z"/></symbol><symbol id="bracer" viewBox="0 0 512 512"><path d="M412.6 27.246c-62.483 12.864-108.973 44.93-148.62 82.2-8.492 8.785-16.66 17.994-24.543 27.56 4.898 1.954 9.432 4.115 13.304 7.09.313-.395.7-.9 1.005-1.286 6.282-7.98 10.457-13.283 13.182-16.123l12.988 12.46c-.528.552-5.826 6.92-12.025 14.796-6.2 7.875-13.92 17.864-21.528 27.89-7.608 10.023-15.113 20.094-20.86 28.094-2.872 4-5.31 7.49-7.062 10.13-1.75 2.64-2.987 5.184-2.582 4.134l-16.793-6.48c1.2-3.11 2.415-4.648 4.375-7.603 1.082-1.63 2.37-3.5 3.774-5.506-3.99-2.19-8.23-4.21-12.563-5.67-11.845 18.36-23.12 37.345-34.032 56.61 4.74.9 9.385 2.15 13.65 4.094.547.25 1.095.51 1.64.785 2.275-3.822 4.35-7.24 6.07-9.948 1.923-3.023 3.048-4.9 4.93-6.988l13.374 12.047c.304-.336-1.358 1.838-3.113 4.598-1.756 2.76-4.004 6.458-6.542 10.745-3.152 5.323-6.773 11.605-10.516 18.203-.92 1.636-1.87 3.322-2.918 5.16-1.333 2.37-2.672 4.758-4.006 7.156-6.112 10.993-12.096 22.043-16.634 30.797-2.27 4.376-4.18 8.187-5.537 11.06-1.358 2.872-2.233 5.552-1.993 4.53l-17.52-4.128c.747-3.167 1.722-4.885 3.237-8.092 1.01-2.133 2.29-4.694 3.677-7.428-.176-.093-.336-.185-.563-.29-1.398-.654-3.906-1.24-7.11-1.456-2.58-.174-5.55-.114-8.714.024-6.96 13.054-13.88 26.046-20.812 38.855 24.224-3.728 49.8.884 72.717 11.266 25.21 11.42 47.412 29.837 61.177 52.778a1577.953 1577.953 0 0028.346-34.295c-6.03-7.047-12.925-13.504-20.574-19.506-3.778 5.388-12.217 17.41-12.217 17.41l-14.744-10.328s15.805-22.57 31.834-45.36a10797.526 10797.526 0 0122.27-31.57c3.092-4.363 5.712-8.043 7.632-10.71.96-1.336 1.74-2.415 2.34-3.228.3-.406.554-.742.788-1.047.234-.304.034-.217 1.11-1.293l12.726 12.73c.31-.31.315-.324.395-.41-.113.145-.295.383-.54.714-.517.702-1.273 1.743-2.21 3.044a2063.904 2063.904 0 00-7.558 10.608c-.47.662-1.203 1.71-1.693 2.402 8.655 6.093 16.436 13.453 22.96 21.498 14.668-19.693 28.886-39.478 42.85-59.322-6.27-7.52-13.506-14.377-21.59-20.72-3.778 5.388-12.22 17.408-12.22 17.408l-14.742-10.327s15.806-22.568 31.834-45.36a10993.233 10993.233 0 0122.27-31.57c3.093-4.364 5.713-8.044 7.633-10.712.96-1.335 1.74-2.412 2.34-3.225.302-.406.552-.742.787-1.047.234-.304.033-.217 1.11-1.293l12.727 12.73c.305-.307.31-.32.39-.407-.112.146-.292.382-.535.71-.52.703-1.275 1.744-2.21 3.045-1.874 2.603-4.48 6.263-7.56 10.608-.47.662-1.203 1.708-1.693 2.4 8.053 5.668 15.35 12.433 21.58 19.826 14.802-21.625 29.52-43.287 44.39-64.95-8.163-14.727-13.61-35.985-17.267-59.9-3.51-22.94-4.823-47.863-3.476-70.616zm-24.935 23.988l.033 12.432c.068 26.335.24 57.675 8.26 81.712l4.045 12.127-12.78-.28c-21.215-.467-41.945-6.482-58.818-14.827-16.872-8.345-30.143-18.334-35.918-30.986l-2.78-6.09 5.032-4.412c21.065-18.48 51.315-35.886 81.126-45.766zm-17.883 25.353c-20.675 8.326-41.308 20.34-56.947 32.725 4.763 5.217 13.01 11.738 23.55 16.95 11.334 5.607 25.01 9.99 38.96 11.904-4.7-20.446-5.428-42.064-5.563-61.58zm-155.35 72.47l-19.294 31.21c8.46 2.03 15.834 5.644 22.017 9.223 2.87-4.034 5.655-7.918 11.22-15.912 3.968-5.703 7.908-11.442 10.737-15.727.11-.165.144-.23.25-.39-2.897-1.764-6.678-3.825-10.644-5.292-5.795-2.144-11.265-2.857-14.287-3.112zm143.58 69.394L338.99 246.3c14.875 11.8 27.542 25.663 36.984 42.082l15.574-23.535c-4.002-15.06-17.05-34.1-33.535-46.394zm-214.28 53.458c-2.03-.036-2.87.123-4.33.203l-17.692 36.36c3.37-.127 6.782-.277 10.246-.043 4.495.304 9.07 1.028 13.52 3.108.237.11.463.28.7.4 2.856-4.895 4.654-7.948 9.272-15.957 3.72-6.452 7.428-12.932 10.15-17.8.505-.906.755-1.39 1.186-2.17-2.534-1.152-6.38-2.25-10.494-2.98-4.125-.734-8.703-1.053-12.56-1.12zm129.925 62.125l-19.023 27.847c14.875 11.8 27.542 25.663 36.984 42.082l15.576-23.537c-4.002-15.06-17.052-34.097-33.537-46.392zM96.634 384.427a78.273 78.273 0 00-9.82 3.06l-8.155 3.153c1.374 45.12 28.474 76.875 60.952 88.8 30.687 11.27 66.89 4.883 89.315-21.724l-3.803-8.79a86.152 86.152 0 00-4.943-9.645c-16.81 27.018-47.216 33.235-74.363 23.266-27.302-10.025-50.384-36.346-49.183-78.12z"/></symbol><symbol id="cloak" viewBox="0 0 512 512"><path d="M256 23.316c-27.177 0-58.578 5.75-79.525 17.967-20.688 13.774-43.22 60.756-43.22 60.756a333.206 333.206 0 00-9.16 16.376c-36.372 69.627-61.496 175.763-62.4 317.686 46.593 26.853 97.436 44.53 142.05 52.582-21.736-14.917-40.667-38.325-55.18-67.618 36.913-4.56 78.545-9.817 107.314-9.818 29.802 0 73.456 5.63 111.32 10.29-14.484 29.072-33.326 52.308-54.946 67.144 44.615-8.052 91.458-25.727 138.05-52.58-.903-141.923-26.027-248.06-62.4-317.686a331.068 331.068 0 00-9.16-16.375v-.003s-22.53-46.98-43.22-60.754c-23.52-11.95-52.347-17.967-79.524-17.967zm-.045 16.22c30.187 3.09 57.525 4.198 76.307 24.67-18.46 21.81-45.975 49.5-76.29 49.503-30.302.002-66.432-30.935-76.27-49.468 17.72-19.566 53.18-24.537 76.253-24.707zM170.57 80c5.43 12.588 52.522 49.167 85.375 49.25C289.09 129.333 336 91.16 342.32 80c0 0 12.28 18.68 18.594 31.057l4.55 10.906c20.518 45.148 32.614 92.753 32.614 158.1 0 45.65-8.408 88.144-22.873 123.724-32.45-4.387-73.958-7.39-119.205-7.39-43.513 0-83.54 2.78-115.408 6.896-14.34-35.48-22.67-77.792-22.67-123.23 0-65.347 8.096-112.952 28.613-158.1l4.55-10.906C157.378 98.725 170.57 80 170.57 80z"/></symbol><symbol id="glove" viewBox="0 0 512 512"><path d="M123.153 24.602c-11.349.764-48.792 83.005-63.545 132.174-8.046 26.818 2.983 74.734 41.723 106.45 8.813-1.502 16.946-3.047 24.434-4.626-22.473-24.22-39.048-50.488-47.772-82.059l-1.021-3.699 1.963-3.299c26.135-43.925 37.681-68.548 50.85-112.24l3.849-12.773 10.402 8.351c14.624 11.743 23.72 18.084 32.098 21.809-14.428-22.99-31.841-41.36-52.46-50.06a2.164 2.164 0 00-.52-.028zm19.791 50.203c-11.724 36.176-24.141 62.49-46.508 100.379 9.004 29.978 25.746 54.616 49.733 78.65 18.744-4.857 32.588-9.929 43.383-14.978 16.875-7.894 26.514-15.73 36.92-23.701-6.532-34.91-18.944-80.14-38.018-118.375-14.754-2.769-27.196-8.373-45.51-21.975zm90.094 158.008c-9.156 7.022-19.796 14.833-35.861 22.347-17.365 8.123-40.947 15.887-76.29 22.793 35.349 28.759 64.905 62.213 112.643 82.157 2.79-15.613 10.509-29.532 20.61-39.782 9.547-9.688 21.609-16.383 34.252-16.82 2.202-5.202 5.378-10.557 10.593-14.93 6.41-5.374 15.626-8.323 26.932-8.156a35.046 35.046 0 014.807-5.424c-7.384-1.603-16.19-3.168-27.145-5.586zm120.275 50.299c-.04.009-.084.012-.125.021-11.264 3.729-12.514 6.776-16.947 16.078-8.484-1.005-19.247-2.081-25.69 3.16-6.017 6.313-7.279 12.696-9.685 20.715-14.012-3.276-25.77 1.842-33.904 9.877-8.032 8.15-14.35 20.016-16.082 32.65 5.926 2.628 12.109 4.214 18.139 5.727 12.69-15.498 32.27-33.513 50.66-36.851 12.995-13.444 28.669-18.08 41.183-19.891a60.105 60.105 0 0111.764-8.4c-6.632-11.786-12.405-18.622-19.313-23.086zm-232.011 18.882c-1.967 12.934-7.997 24.573-.64 46.305 32.36 70.655 41.042 23.73 93.735 22.953-38.944-18.938-66.126-45.737-93.095-69.258zm267.765 17.102c-4.87.972-9.343 3.536-13.062 6.28 9.197 12.249 16.987 27.313 23.28 43.81 7.916-2.052 14.75-4.612 21.103-7.506-6.473-26.762-18.951-37.976-31.32-42.584zm-29.935 13.906c-7.676 1.509-15.588 4.36-22.774 10.35 8.367 8.844 20.976 24.773 26.053 43.283 7.632-1.268 15.91-3.698 21.006-8.576-6.608-17.858-15.058-33.73-24.285-45.057zm-38.139 19.668c-14.313 5.357-25.257 14.981-34.674 25.938l19.383 26.324c13.696-1.49 26.639-6.254 39.39-13.299-4.69-15.098-18.62-32.912-24.447-38.607zm108.848 24.365c-6.679 3.099-13.973 5.985-22.237 8.375 6.323 10.32 11.618 21.138 15.602 32.543 7.703-3.07 14.902-6.372 21.264-10.082-3.964-11.28-8.68-22.055-14.63-30.836zM164.687 408.39l49.638 43.377c11.274-13.516 27.044-23.94 42.492-33.942l-22.02-25.32c-24.334-8.01-52.756 2.355-70.11 15.885zM391.9 394.153c-6.866 5.056-14.143 7.727-21.795 9.377 5.371 9.31 10.375 19.502 14.354 29.755 7.946-2.139 15.451-4.432 22.344-7.775-3.648-10.897-8.68-21.303-14.903-31.357zm-39.88 14.105c-11.759 6.313-24.191 11.162-37.42 13.545l13.316 27.447c14.663-2.177 28.099-3.684 39.666-9.746-4.195-10.706-9.777-21.706-15.563-31.246zm98.017 17.156c-6.627 3.604-13.647 6.703-20.846 9.534 2.83 7.167 5.28 14.119 7.21 20.757 10.397-1.435 20.263-5.912 18.179-13.869-1.423-5.296-2.923-10.83-4.543-16.422zM268.82 431.54c-16.062 10.564-31.09 20.975-40.728 32.256l1.392 1.217c16.648 14.548 36.256 20.475 44.95 9.13 8.522-11.12 10.536-24.116-5.614-42.603zm144.01 10.957c-7.166 3.334-14.4 5.634-21.465 7.58 3.051 6.991 5.842 13.849 8.244 20.48 9.2-.457 17.732-4.025 19.33-10.442-1.622-5.49-3.688-11.409-6.109-17.618zm-38.437 13.69c-12.724 6.396-25.866 8.467-38.184 10.154l6 12.367c10.038 10.705 32.656 11.336 42.21 2.944-2.654-7.907-6.1-16.516-10.026-25.465z"/></symbol><symbol id="helmet" viewBox="0 0 512 512"><path d="M256 29.313c-12.241 0-23.9 2.742-35.05 7.787l4.935 22.212h60.23l4.936-22.212c-11.15-5.045-22.81-7.788-35.051-7.788zM204.57 46.36c-5.955 4.052-11.764 8.751-17.435 14.035-20.313 18.928-38.436 45.192-53.854 73.68 42.044 12.5 70.812 20.399 96.055 23.736zm102.86 0l-24.766 111.452c25.243-3.338 54.01-11.237 96.055-23.737-15.418-28.488-33.54-54.752-53.854-73.68-5.67-5.284-11.48-9.983-17.435-14.035zm-77.545 30.952l17.334 78h17.562l17.334-78zm-105.006 73a566.74 566.74 0 00-6.783 14.234c84.712 35.52 191.096 35.52 275.808 0a566.74 566.74 0 00-6.783-14.235c-120.135 35.46-142.107 35.46-262.242 0zm-14.072 30.714c-18.202 42.794-30.441 84.165-36.744 108.621L121 336.584v94.506l90.295 51.598-27.586-137.938L135 296.041v-3.728c0-19 8.748-39.679 19.133-58.372 6.936-12.484 14.615-23.86 21.652-32.748-22.437-4.706-44.27-11.427-64.978-20.166zm290.386 0c-20.708 8.74-42.54 15.46-64.978 20.166 7.037 8.888 14.716 20.264 21.652 32.748C368.252 252.634 377 273.312 377 292.312v3.729l-48.709 48.709-27.586 137.938L391 431.09v-94.506l46.938-46.936c-6.304-24.456-18.543-65.827-36.745-108.62zM248.725 210.81L236 292.313l20 32 20-32-12.725-81.504c-4.856.213-9.694.213-14.55 0zm-174.4 104.556a496.166 496.166 0 00-7.641 25.315c-.028.1-.053.2-.08.3L103 362.816v-18.775zm363.35 0L409 344.041v18.775l36.396-21.836c-.027-.1-.052-.2-.08-.3a496.167 496.167 0 00-7.64-25.315zM62.07 359.25c-1.938 8.59-3.394 16.22-4.228 21.65 3.629 1.078 7.362 2.608 11.49 4.422 7.878 3.463 16.615 8.115 25.201 13.278a327.65 327.65 0 018.467 5.265V383.81zm387.86 0L409 383.809v20.056a327.646 327.646 0 018.467-5.265c8.586-5.163 17.323-9.815 25.201-13.278 4.128-1.814 7.861-3.344 11.49-4.422-.834-5.43-2.29-13.06-4.228-21.65z"/></symbol><symbol id="necklace" viewBox="0 0 512 512"><path class="artifact__in" fill="" d="M273.9 28.1c-20.7.1-41 3.02-60.1 9.42C144.3 60.96 107.5 136.6 88.83 198.9c-3.22 10.8-6.18 22.5-8.36 34.5 1.97-.1 3.92-.1 5.83 0 4.29.3 8.3 1.4 11.95 3 2.05-11.2 4.85-22.1 7.85-32.3 17.8-59.9 53.4-129.28 113.5-149.52 16.8-5.68 35.3-8.23 54.4-8.12 23.5.12 47.8 4.28 71 11.55 0 .14 0 .28-.1.42-5.1.84-11.3 1.94-17.9 3.4-17.4 3.84-37.5 9.26-50.4 20.72-12.6 11.21-20.1 29.95-25.8 46.35-5.6 16.3-8.8 30.4-8.8 30.4l17.6 4s2.9-13.2 8.3-28.5c5.3-15.3 13.7-32.6 20.7-38.81 7.3-6.49 26-13 42.3-16.6 6.1-1.34 11.8-2.38 16.7-3.16 1.8 3.09 4.4 5.76 7.3 7.86 6.1 4.48 13.9 6.9 22.4 6.9 1.3 0 2.6-.1 3.8-.18.8 2.01 1.6 4.09 2.3 6.29 3.9 11.8 5.9 26.2 4.1 31.3v.1c-2 5.8-13.2 16.4-24.3 23.8-11.1 7.4-21.4 12.4-21.4 12.4l7.8 16.2s11.3-5.4 23.6-13.6c12.2-8.2 26.2-18.3 31.3-33 4.9-14.1.3-29.6-4-42.83-.8-2.23-1.5-4.36-2.2-6.38.4-.32.9-.65 1.4-1 .5-.37 1-.76 1.5-1.16 11.5 6.88 22.2 14.54 31.5 22.77 30.1 26.6 45.8 74.7 36.3 111.4-15.6 59.6-71.4 117-134.6 143.5.6.7 1.2 1.4 1.7 2.1 2.9 4 5.1 8.7 6.3 14.1 68.1-28.5 126.7-88.7 144-155.1 11.7-44.7-6.2-98-41.7-129.44-10.3-9.13-21.9-17.55-34.4-25.1.1-.92.2-1.86.2-2.82 0-3.87-1-7.48-2.8-10.69 1.3-.34 2.6-.63 4-.87 12-2.07 27.9.19 46.5 8.96l7.6-16.28c-15.7-7.45-30.6-11.21-44.1-11.41-4.5-.1-8.9.27-13.1.99-5.8 1.01-11.3 2.86-16.3 5.45-4.6-1.84-9.6-2.8-15-2.8-7.2 0-13.9 1.74-19.5 5-27.1-9.35-55.8-14.66-83.9-14.59zM83.05 251.3c-4.72.1-10.6 1.9-17.86 7-16.24 11.3-31.61 33.7-43.15 54 13.06-3.9 27.43-7.9 40.83-12.3 10.71-3.4 20.64-7 28.09-10.6 7.45-3.6 12.14-7.7 12.64-8.8h.1c2.1-3.8.5-16.2-6.27-23.2-3.37-3.5-7.4-5.7-12.42-6-.63-.1-1.28-.1-1.95-.1zm16.16 54.1c-.14.1-.28.1-.42.2-4.93 2.4-10.43 4.6-16.25 6.7 2.03 6.3 4.66 12.4 7.99 18.1 2.99-3.3 6.43-6.3 10.17-8.8 1.3-.9 2.7-1.8 4.1-2.6-2.3-4.3-4.1-8.8-5.59-13.6zM126 330.9c-4.3.1-9.9 1.9-15.1 5.5-6.8 4.7-11.93 12.1-12.74 17.1-.35 2.3.92 7 3.94 10.9 3 3.9 7.2 6.2 9.4 6.4 1.4.1 3-.2 4.6-.8 1.1-3.1 2.1-5.9 3-8.3 3.5-8.8 8.7-15.8 14.8-20.9-.1-1.4-.3-2.7-.7-3.9-1.1-3.7-2.7-5.2-3.4-5.5-1.1-.3-2.4-.5-3.8-.5zm39.9 16.9c-5.3 0-10.6 1.1-15.2 3.4-6.1 3-11.3 8.1-14.8 17.1-5 12.6-13.3 42.2-17.2 70.6-2 14.2-2.8 28.3-1.9 39.7.2 1.9.5 3.6.8 5.3 10.3-21.4 26-42.8 40.5-62.4 6.7-9.1 13.2-17.9 18.8-25.9 0-2.8.2-5.6.6-8.3 1.6-11.3 6.3-22.3 14.4-30.1-.8-.7-1.6-1.6-2.8-2.4-4.1-3.1-10.8-5.8-17.8-6.7-1.8-.2-3.6-.3-5.4-.3zM303.4 365c-3.5 0-6.8.6-9.2 1.6-3.6 1.5-4.9 3.2-5.3 4.9.1 0 0 1.9.2 4.1.3 2.6.8 6.1 1.4 10.2 1.3 8.2 3.2 18.8 5.2 30.1 2.3 12.6 4.7 25.6 6.8 38 10.1-19.9 20-41.9 22.7-60.8 1.3-9.7-.6-15.6-3.6-19.7s-7.6-6.7-12.8-7.8c-1.3-.3-2.6-.5-3.9-.6h-1.5zm-14.5 6.5zm-74.4-4.7c-4-.1-7.8 1.3-9.4 2.7-4.4 3.8-8.6 12.2-9.8 20.4-1.2 8.3.6 15.6 3.9 19 2.1 2.1 7.7 3.7 14 2.9 6.4-.9 12.6-4.2 15-7.1 2.8-3.6 4.4-10.4 3.5-17.6-.9-7.1-4.2-14-7.8-17.3h-.1c-1.5-1.5-5.3-2.9-9.3-3zm56.6 9.5c-7.5.8-15.2 1.2-22.9 1.3.6 2.4 1.1 4.9 1.4 7.3.4 3.7.5 7.5.2 11.2 8-.2 16-.8 23.8-1.7-.3-2-.6-4-.9-5.8-.7-4.3-1.2-8.1-1.5-11.2 0-.4-.1-.7-.1-1.1z"/></symbol><symbol id="ring" viewBox="0 0 512 512"><path d="M255.157 123c-68.66 0-137.1 18.922-182.867 55.275.234 14.35 1.818 35.624 9.332 48.23 110.634-60.336 236.436-60.336 347.07 0 7.513-12.606 9.098-33.88 9.332-48.23C392.257 141.922 323.817 123 255.157 123zm199.81 76.057c-.324 2.98-.718 6.02-1.246 9.082-2.226 12.93-6.213 26.458-15.99 35.98-14.436 18.637-40.806 30.462-72.858 38.603C332.392 290.973 293.79 295 255.157 295c-38.632 0-77.235-4.028-109.715-12.277-31.907-8.104-58.17-19.868-72.648-38.36-11.983-11.982-16.234-28.786-17.77-43.857-13.73 27.256-11.503 62.122.672 98.648C69.988 342.03 129.406 389 255.156 389c125.75 0 185.17-46.97 199.462-89.846l.1-.297.12-.287c15.134-36.712 15.61-71.983.13-99.513z"/></symbol></svg>